<?xml version="1.0" encoding="UTF-8"?>
<svg id="Capa_2" data-name="Capa 2" xmlns="http://www.w3.org/2000/svg" viewBox="0 0 123.91 178.24">
  <defs>
    <style>
      .cls-1 {
        fill: #b89555;
        stroke-width: 0px;
      }
    </style>
  </defs>
  <g id="Capa_1-2" data-name="Capa 1">
    <path class="cls-1" d="M90.57,66.7h-34.07V0h34.07c18.39,0,33.35,14.96,33.35,33.35s-14.96,33.35-33.35,33.35ZM67.42,55.77h23.15c12.37,0,22.42-10.06,22.42-22.42s-10.06-22.42-22.42-22.42h-23.15v44.84ZM67.42,66.7h-34.07C14.96,66.7,0,51.74,0,33.35S14.96,0,33.35,0h34.07v66.7h0ZM33.35,10.92c-12.37,0-22.42,10.06-22.42,22.42s10.06,22.43,22.42,22.43h23.15V10.92h-23.15ZM67.42,122.46h-34.07C14.96,122.46,0,107.51,0,89.12s14.96-33.35,33.35-33.35h34.07v66.69h0ZM33.35,66.7c-12.37,0-22.42,10.06-22.42,22.42s10.06,22.42,22.42,22.42h23.15v-44.84h-23.15ZM33.53,178.24c-18.48,0-33.53-14.96-33.53-33.35s14.96-33.35,33.35-33.35h34.07v32.98c0,18.59-15.2,33.71-33.89,33.71ZM33.35,122.46c-12.38.02-22.4,10.04-22.42,22.42,0,12.37,10.14,22.42,22.61,22.42s22.97-10.22,22.97-22.78v-22.06h-23.16ZM90.57,122.46h-.73c-18.39,0-33.35-14.96-33.35-33.35s14.96-33.35,33.35-33.35h.73c18.39,0,33.35,14.96,33.35,33.35s-14.96,33.35-33.35,33.35ZM89.85,66.7c-12.37,0-22.42,10.06-22.42,22.42s10.06,22.42,22.42,22.42h.73c12.37,0,22.42-10.06,22.42-22.42s-10.06-22.42-22.42-22.42h-.73Z"/>
  </g>
</svg>